<?xml version="1.0" encoding="UTF-8"?>
<svg id="Layer_2" data-name="Layer 2" xmlns="http://www.w3.org/2000/svg" viewBox="0 0 551.51 69.07">
  <defs>
    <style>
      .cls-1 {
        fill: #fbb03b;
      }
    </style>
  </defs>
  <g id="Layer_1-2" data-name="Layer 1">
    <g>
      <g>
        <path d="M51.63,16.94V1.26H0v33.91h31.48v15.68h51.63V16.94h-31.48ZM6,29.17V7.26h39.63v9.68h-14.14v12.23H6Z"/>
        <rect class="cls-1" x="51.63" y="35.17" width="51.63" height="33.91"/>
      </g>
      <g>
        <path d="M129.84,67.9h-14.59V1.26h14.59v66.64Z"/>
        <path d="M142,67.9V22.87h13.06l.9,4.68c2.79-3.87,7.93-6.12,13.78-6.12,10.72,0,16.93,6.84,16.93,18.64v27.83h-13.87v-24.5c0-5.67-3.15-9.37-7.92-9.37-5.49,0-9.01,3.6-9.01,9.19v24.68h-13.87Z"/>
        <path d="M194.15,45.66c0-14.32,8.56-24.23,22.24-24.23,5.58,0,10.9,2.25,13.51,5.58V0h13.87v67.9h-13.06l-.72-5.76c-2.43,4.14-8.02,6.93-14.5,6.93-12.97,0-21.34-9.19-21.34-23.42ZM229.81,45.12c0-6.75-4.5-11.26-10.99-11.26s-10.72,4.59-10.72,11.26,4.14,11.26,10.72,11.26,10.99-4.5,10.99-11.26Z"/>
        <path d="M251.79,45.3c0-14.05,9.46-23.87,23.05-23.87s22.96,9.28,22.96,23.96v3.51l-32.69.18c.81,5.94,4.14,8.74,10.27,8.74,5.22,0,8.92-1.89,9.91-5.13h12.7c-1.62,10-10.54,16.39-22.88,16.39-13.6,0-23.32-9.91-23.32-23.78ZM265.3,40.53h18.73c0-4.77-3.51-7.83-9.1-7.83s-8.56,2.43-9.64,7.83Z"/>
        <path d="M299.43,67.9l15.13-21.79-15.13-23.23h16.03l8.29,13.69,7.75-13.69h15.49l-14.86,22.96,14.32,22.06h-15.94l-7.75-12.97-7.57,12.97h-15.76Z"/>
        <path d="M369.41,41.88v26.03h-14.59V1.26h42.42v13.51h-27.83v13.96h23.42v13.15h-23.42Z"/>
        <path d="M405.52,67.9V0h13.87v67.9h-13.87Z"/>
        <path d="M452.27,21.52c14.32,0,24.77,9.55,24.77,23.77s-10.45,23.69-24.77,23.69-24.86-9.46-24.86-23.69,10.45-23.77,24.86-23.77ZM452.27,56.56c6.39,0,10.81-4.5,10.81-11.35s-4.41-11.26-10.81-11.26-10.9,4.5-10.9,11.26,4.41,11.35,10.9,11.35Z"/>
        <path d="M478.48,22.87h14.59l4.14,14.68c1.08,3.87,2.07,8.29,2.79,12.79.81-4.77,1.26-6.48,3.24-12.79l4.59-14.68h14.23l4.23,14.68c.45,1.53,2.61,9.91,3.06,12.79.54-3.24,2.7-11.17,3.15-12.79l4.32-14.68h14.68l-15.76,45.03h-12.88l-4.32-14.32c-2.25-7.38-3.42-12.7-3.69-14.59-.36,1.89-1.17,5.4-4.05,14.86l-4.32,14.05h-13.51l-14.5-45.03Z"/>
      </g>
    </g>
  </g>
</svg>